# xmcd
#
# Track frame offsets:
# 150
# 18485
# 32600
# 49912
# 68035
# 83437
# 97352
# 115957
# 133405
# 152562
# 169102
#
# Disc length: 2461 seconds
#
#
# Revision: 8
# Processed by: cddbd v1.4PL0 Copyright (c) Steve Scherf et al.
# Submitted via: FreeRIP 2.35 
#
DISCID=90099b0b
DTITLE=Kenny Chesney - Everywhere We Go
DYEAR=1999
DGENRE=Country
TTITLE0=What I Need To Do
TTITLE1=How Forever Feels
TTITLE2=You Had Me From Hello
TTITLE3=Kiss Me, Kiss Me, Kiss Me
TTITLE4=Life Is Good
TTITLE5=Everywhere We Go
TTITLE6=She Thinks My Tractor's Sexy
TTITLE7=California
TTITLE8=Baptism (With Randy Travis)
TTITLE9=A Woman Knows
TTITLE10=I Might Get Over You
EXTD=YEAR: 1999 ID3G: 2
EXTT0=
EXTT1=
EXTT2=
EXTT3=
EXTT4=
EXTT5=
EXTT6=
EXTT7=
EXTT8=
EXTT9=
EXTT10=
PLAYORDER=
